<mxfile host="app.diagrams.net" modified="2020-11-14T22:25:07.282Z" agent="5.0 (Windows NT 10.0; Win64; x64) AppleWebKit/537.36 (KHTML, like Gecko) Chrome/86.0.4240.198 Safari/537.36" etag="A6W_3Un27mH58i-tXnp5" version="13.9.7" type="github">
  <diagram id="qVdm7OK3B3jJeVVss5eM" name="Page-1">
    <mxGraphModel dx="1422" dy="834" grid="1" gridSize="10" guides="1" tooltips="1" connect="1" arrows="1" fold="1" page="1" pageScale="1" pageWidth="850" pageHeight="1100" background="#E6E6E6" math="0" shadow="0">
      <root>
        <mxCell id="0" />
        <mxCell id="1" parent="0" />
        <mxCell id="fX5iidgYdfW37VWG11vo-1" value="" style="verticalLabelPosition=bottom;html=1;verticalAlign=top;align=center;strokeColor=none;fillColor=#00BEF2;shape=mxgraph.azure.user;fontFamily=Verdana;" parent="1" vertex="1">
          <mxGeometry x="130" y="165" width="70" height="75" as="geometry" />
        </mxCell>
        <mxCell id="fX5iidgYdfW37VWG11vo-3" value="" style="aspect=fixed;pointerEvents=1;shadow=0;dashed=0;html=1;strokeColor=none;labelPosition=center;verticalLabelPosition=bottom;verticalAlign=top;align=center;fillColor=#00188D;shape=mxgraph.azure.computer;fontFamily=Verdana;" parent="1" vertex="1">
          <mxGeometry x="405.84" y="130" width="63.33" height="57" as="geometry" />
        </mxCell>
        <mxCell id="fX5iidgYdfW37VWG11vo-5" value="" style="html=1;verticalLabelPosition=bottom;align=center;labelBackgroundColor=none;verticalAlign=top;strokeWidth=2;strokeColor=#0080F0;shadow=0;dashed=0;shape=mxgraph.ios7.icons.smartphone;fontFamily=Verdana;fillColor=none;" parent="1" vertex="1">
          <mxGeometry x="425" y="210" width="25" height="60" as="geometry" />
        </mxCell>
        <mxCell id="fX5iidgYdfW37VWG11vo-6" value="" style="endArrow=classic;html=1;strokeWidth=2;fontFamily=Verdana;" parent="1" edge="1">
          <mxGeometry width="50" height="50" relative="1" as="geometry">
            <mxPoint x="242.5" y="150" as="sourcePoint" />
            <mxPoint x="390" y="150" as="targetPoint" />
          </mxGeometry>
        </mxCell>
        <mxCell id="fX5iidgYdfW37VWG11vo-8" value="User connects &lt;br&gt;to application" style="text;html=1;resizable=0;autosize=1;align=center;verticalAlign=middle;points=[];fillColor=none;strokeColor=none;rounded=0;fontFamily=Verdana;" parent="1" vertex="1">
          <mxGeometry x="280" y="110" width="100" height="30" as="geometry" />
        </mxCell>
        <mxCell id="fX5iidgYdfW37VWG11vo-9" value="1" style="ellipse;whiteSpace=wrap;html=1;aspect=fixed;strokeWidth=2;fontFamily=Verdana;spacingBottom=4;spacingRight=2;strokeColor=#d3d3d3;labelBackgroundColor=none;fillColor=none;" parent="1" vertex="1">
          <mxGeometry x="240.5" y="115" width="20" height="20" as="geometry" />
        </mxCell>
        <mxCell id="fX5iidgYdfW37VWG11vo-12" value="" style="outlineConnect=0;dashed=0;verticalLabelPosition=bottom;verticalAlign=top;align=center;html=1;shape=mxgraph.aws3.corporate_data_center;fillColor=#7D7C7C;gradientColor=none;fontFamily=Verdana;labelBackgroundColor=none;" parent="1" vertex="1">
          <mxGeometry x="700" y="150" width="80" height="140" as="geometry" />
        </mxCell>
        <mxCell id="fX5iidgYdfW37VWG11vo-14" value="" style="endArrow=classic;html=1;strokeWidth=2;fontFamily=Verdana;" parent="1" edge="1">
          <mxGeometry width="50" height="50" relative="1" as="geometry">
            <mxPoint x="482.5" y="150" as="sourcePoint" />
            <mxPoint x="655" y="150" as="targetPoint" />
          </mxGeometry>
        </mxCell>
        <mxCell id="fX5iidgYdfW37VWG11vo-15" value="Application &lt;br&gt;connects to&amp;nbsp;TPP" style="text;html=1;resizable=0;autosize=1;align=center;verticalAlign=middle;points=[];fillColor=none;strokeColor=none;rounded=0;fontFamily=Verdana;" parent="1" vertex="1">
          <mxGeometry x="513.75" y="110" width="110" height="30" as="geometry" />
        </mxCell>
        <mxCell id="fX5iidgYdfW37VWG11vo-17" value="2" style="ellipse;whiteSpace=wrap;html=1;aspect=fixed;strokeWidth=2;fontFamily=Verdana;spacingBottom=4;spacingRight=2;strokeColor=#d3d3d3;fillColor=none;" parent="1" vertex="1">
          <mxGeometry x="483.75" y="115" width="20" height="20" as="geometry" />
        </mxCell>
        <mxCell id="fX5iidgYdfW37VWG11vo-18" value="" style="endArrow=classic;html=1;strokeWidth=2;fontFamily=Verdana;" parent="1" edge="1">
          <mxGeometry width="50" height="50" relative="1" as="geometry">
            <mxPoint x="653.75" y="210" as="sourcePoint" />
            <mxPoint x="483.75" y="210.43" as="targetPoint" />
          </mxGeometry>
        </mxCell>
        <mxCell id="fX5iidgYdfW37VWG11vo-19" value="TPP returns token&amp;nbsp;" style="text;html=1;resizable=0;autosize=1;align=center;verticalAlign=middle;points=[];fillColor=none;strokeColor=none;rounded=0;fontFamily=Verdana;" parent="1" vertex="1">
          <mxGeometry x="503.75" y="175" width="130" height="20" as="geometry" />
        </mxCell>
        <mxCell id="fX5iidgYdfW37VWG11vo-20" value="3" style="ellipse;whiteSpace=wrap;html=1;aspect=fixed;strokeWidth=2;fontFamily=Verdana;spacingBottom=4;spacingRight=2;strokeColor=#d3d3d3;fillColor=none;" parent="1" vertex="1">
          <mxGeometry x="483.75" y="175" width="20" height="20" as="geometry" />
        </mxCell>
        <mxCell id="fX5iidgYdfW37VWG11vo-21" value="" style="endArrow=classic;html=1;strokeWidth=2;fontFamily=Verdana;" parent="1" edge="1">
          <mxGeometry width="50" height="50" relative="1" as="geometry">
            <mxPoint x="390" y="210" as="sourcePoint" />
            <mxPoint x="240.5" y="210" as="targetPoint" />
          </mxGeometry>
        </mxCell>
        <mxCell id="fX5iidgYdfW37VWG11vo-22" value="User selects &lt;br&gt;bank" style="text;html=1;resizable=0;autosize=1;align=center;verticalAlign=middle;points=[];fillColor=none;strokeColor=none;rounded=0;fontFamily=Verdana;" parent="1" vertex="1">
          <mxGeometry x="280" y="170" width="90" height="30" as="geometry" />
        </mxCell>
        <mxCell id="fX5iidgYdfW37VWG11vo-24" value="4" style="ellipse;whiteSpace=wrap;html=1;aspect=fixed;strokeWidth=2;fontFamily=Verdana;spacingBottom=4;spacingRight=2;strokeColor=#d3d3d3;fillColor=none;" parent="1" vertex="1">
          <mxGeometry x="240.5" y="175" width="20" height="20" as="geometry" />
        </mxCell>
        <mxCell id="fX5iidgYdfW37VWG11vo-25" value="" style="shape=mxgraph.signs.travel.bank;html=1;pointerEvents=1;fillColor=#000000;strokeColor=none;verticalLabelPosition=bottom;verticalAlign=top;align=center;fontSize=15;fontFamily=Verdana;" parent="1" vertex="1">
          <mxGeometry x="120.5" y="420" width="99" height="86" as="geometry" />
        </mxCell>
        <mxCell id="fX5iidgYdfW37VWG11vo-29" value="&lt;span style=&quot;box-sizing: border-box; color: rgba(0, 0, 0, 0.88); font-size: 18px; text-align: left;&quot;&gt;Account Servicing Payment &lt;br&gt;Service Providers (ASPSP)&lt;/span&gt;" style="text;html=1;resizable=0;autosize=1;align=center;verticalAlign=middle;points=[];fillColor=none;strokeColor=none;rounded=0;strokeWidth=3;fontSize=15;fontFamily=Verdana;fontStyle=1;labelBackgroundColor=none;" parent="1" vertex="1">
          <mxGeometry x="24.999999999999986" y="520" width="290" height="40" as="geometry" />
        </mxCell>
        <mxCell id="fX5iidgYdfW37VWG11vo-30" value="" style="endArrow=classic;html=1;strokeWidth=2;fontFamily=Verdana;" parent="1" edge="1">
          <mxGeometry width="50" height="50" relative="1" as="geometry">
            <mxPoint x="180" y="280" as="sourcePoint" />
            <mxPoint x="180" y="400" as="targetPoint" />
          </mxGeometry>
        </mxCell>
        <mxCell id="fX5iidgYdfW37VWG11vo-31" value="User authenticates &lt;br&gt;to the bank" style="text;html=1;resizable=0;autosize=1;align=center;verticalAlign=middle;points=[];fillColor=none;strokeColor=none;rounded=0;fontFamily=Verdana;" parent="1" vertex="1">
          <mxGeometry x="29.999999999999996" y="340" width="130" height="30" as="geometry" />
        </mxCell>
        <mxCell id="fX5iidgYdfW37VWG11vo-33" value="" style="endArrow=classic;html=1;strokeWidth=2;fontFamily=Verdana;" parent="1" edge="1">
          <mxGeometry width="50" height="50" relative="1" as="geometry">
            <mxPoint x="160" y="400" as="sourcePoint" />
            <mxPoint x="160" y="280" as="targetPoint" />
          </mxGeometry>
        </mxCell>
        <mxCell id="fX5iidgYdfW37VWG11vo-34" value="Request is sent &lt;br&gt;to ASPSP" style="text;html=1;resizable=0;autosize=1;align=center;verticalAlign=middle;points=[];fillColor=none;strokeColor=none;rounded=0;fontFamily=Verdana;" parent="1" vertex="1">
          <mxGeometry x="190" y="340" width="110" height="30" as="geometry" />
        </mxCell>
        <mxCell id="fX5iidgYdfW37VWG11vo-35" value="5" style="ellipse;whiteSpace=wrap;html=1;aspect=fixed;strokeWidth=2;fontFamily=Verdana;spacingBottom=4;spacingRight=2;strokeColor=#d3d3d3;fillColor=none;" parent="1" vertex="1">
          <mxGeometry x="235" y="320" width="20" height="20" as="geometry" />
        </mxCell>
        <mxCell id="fX5iidgYdfW37VWG11vo-36" value="6" style="ellipse;whiteSpace=wrap;html=1;aspect=fixed;strokeWidth=2;fontFamily=Verdana;spacingBottom=4;spacingRight=2;strokeColor=#d3d3d3;fillColor=none;" parent="1" vertex="1">
          <mxGeometry x="85" y="320" width="20" height="20" as="geometry" />
        </mxCell>
        <mxCell id="fX5iidgYdfW37VWG11vo-37" value="" style="endArrow=classic;html=1;strokeWidth=2;fontFamily=Verdana;" parent="1" edge="1">
          <mxGeometry width="50" height="50" relative="1" as="geometry">
            <mxPoint x="246.25" y="270" as="sourcePoint" />
            <mxPoint x="390" y="270" as="targetPoint" />
          </mxGeometry>
        </mxCell>
        <mxCell id="fX5iidgYdfW37VWG11vo-38" value="Access token &lt;br&gt;is sent to TPP" style="text;html=1;resizable=0;autosize=1;align=center;verticalAlign=middle;points=[];fillColor=none;strokeColor=none;rounded=0;fontFamily=Verdana;" parent="1" vertex="1">
          <mxGeometry x="275" y="235" width="100" height="30" as="geometry" />
        </mxCell>
        <mxCell id="fX5iidgYdfW37VWG11vo-40" value="7" style="ellipse;whiteSpace=wrap;html=1;aspect=fixed;strokeWidth=2;fontFamily=Verdana;spacingBottom=4;spacingRight=2;strokeColor=#d3d3d3;direction=south;fillColor=none;" parent="1" vertex="1">
          <mxGeometry x="240.5" y="240" width="20" height="20" as="geometry" />
        </mxCell>
        <mxCell id="fX5iidgYdfW37VWG11vo-42" value="TPP receives&amp;nbsp;&lt;br&gt;access token" style="text;html=1;resizable=0;autosize=1;align=center;verticalAlign=middle;points=[];fillColor=none;strokeColor=none;rounded=0;fontFamily=Verdana;" parent="1" vertex="1">
          <mxGeometry x="518.75" y="235" width="100" height="30" as="geometry" />
        </mxCell>
        <mxCell id="fX5iidgYdfW37VWG11vo-44" value="8" style="ellipse;whiteSpace=wrap;html=1;aspect=fixed;strokeWidth=2;fontFamily=Verdana;spacingBottom=4;spacingRight=2;strokeColor=#d3d3d3;fillColor=none;" parent="1" vertex="1">
          <mxGeometry x="483.75" y="240" width="20" height="20" as="geometry" />
        </mxCell>
        <mxCell id="fX5iidgYdfW37VWG11vo-48" value="" style="endArrow=classic;html=1;strokeWidth=2;fontFamily=Verdana;" parent="1" edge="1">
          <mxGeometry width="50" height="50" relative="1" as="geometry">
            <mxPoint x="482.5" y="270" as="sourcePoint" />
            <mxPoint x="655" y="270" as="targetPoint" />
          </mxGeometry>
        </mxCell>
        <mxCell id="fX5iidgYdfW37VWG11vo-50" value="TPP can exchange &lt;br&gt;client data with ASPSP" style="text;html=1;resizable=0;autosize=1;align=center;verticalAlign=middle;points=[];fillColor=none;strokeColor=none;rounded=0;fontFamily=Verdana;" parent="1" vertex="1">
          <mxGeometry x="575" y="440" width="150" height="30" as="geometry" />
        </mxCell>
        <mxCell id="fX5iidgYdfW37VWG11vo-51" value="9" style="ellipse;whiteSpace=wrap;html=1;aspect=fixed;strokeWidth=2;fontFamily=Tahoma;spacingBottom=4;spacingRight=2;strokeColor=#d3d3d3;fillColor=none;" parent="1" vertex="1">
          <mxGeometry x="640" y="410" width="20" height="20" as="geometry" />
        </mxCell>
        <mxCell id="fX5iidgYdfW37VWG11vo-52" value="" style="endArrow=classic;html=1;strokeWidth=2;fontFamily=Verdana;fontSize=15;" parent="1" edge="1">
          <mxGeometry width="50" height="50" relative="1" as="geometry">
            <mxPoint x="740" y="480" as="sourcePoint" />
            <mxPoint x="280" y="480" as="targetPoint" />
          </mxGeometry>
        </mxCell>
        <mxCell id="fX5iidgYdfW37VWG11vo-53" value="" style="endArrow=classic;html=1;strokeWidth=2;fontFamily=Verdana;" parent="1" edge="1">
          <mxGeometry width="50" height="50" relative="1" as="geometry">
            <mxPoint x="739.5" y="480" as="sourcePoint" />
            <mxPoint x="739.5" y="300" as="targetPoint" />
          </mxGeometry>
        </mxCell>
        <mxCell id="fX5iidgYdfW37VWG11vo-54" value="&lt;span style=&quot;box-sizing: border-box ; color: rgba(0 , 0 , 0 , 0.88) ; font-size: 18px ; text-align: left&quot;&gt;Third Party &lt;br&gt;Provider (TPP)&lt;/span&gt;" style="text;html=1;resizable=0;autosize=1;align=center;verticalAlign=middle;points=[];fillColor=none;strokeColor=none;rounded=0;strokeWidth=3;fontSize=15;fontFamily=Verdana;fontStyle=1;labelBackgroundColor=none;" parent="1" vertex="1">
          <mxGeometry x="660" y="95" width="170" height="40" as="geometry" />
        </mxCell>
        <mxCell id="fX5iidgYdfW37VWG11vo-56" value="&lt;span style=&quot;box-sizing: border-box; color: rgba(0, 0, 0, 0.88); font-size: 25px; text-align: left;&quot;&gt;Authentication flow in Open Banking&amp;nbsp;&lt;/span&gt;" style="text;html=1;resizable=0;autosize=1;align=center;verticalAlign=middle;points=[];fillColor=none;strokeColor=none;rounded=0;strokeWidth=3;fontSize=25;fontFamily=Verdana;fontStyle=1;labelBackgroundColor=none;" parent="1" vertex="1">
          <mxGeometry x="170" y="20" width="540" height="40" as="geometry" />
        </mxCell>
        <mxCell id="fX5iidgYdfW37VWG11vo-57" value="&lt;div style=&quot;text-align: left&quot;&gt;&lt;font color=&quot;rgba(0, 0, 0, 0.87843137254902)&quot;&gt;&lt;span style=&quot;font-size: 18px;&quot;&gt;@juanstoppa&lt;/span&gt;&lt;/font&gt;&lt;/div&gt;" style="text;html=1;resizable=0;autosize=1;align=center;verticalAlign=middle;points=[];strokeColor=none;rounded=0;strokeWidth=3;fontSize=15;fontFamily=Verdana;fontStyle=1;labelBackgroundColor=none;" parent="1" vertex="1">
          <mxGeometry x="690" y="560" width="150" height="20" as="geometry" />
        </mxCell>
        <mxCell id="31aqo5DLNHAE8t7N_z0f-1" value="&lt;div style=&quot;text-align: left&quot;&gt;&lt;span style=&quot;font-size: 18px&quot;&gt;&lt;font&gt;Application&lt;/font&gt;&lt;/span&gt;&lt;/div&gt;" style="text;html=1;resizable=0;autosize=1;align=center;verticalAlign=middle;points=[];fillColor=none;strokeColor=none;rounded=0;strokeWidth=3;fontSize=15;fontFamily=Verdana;fontStyle=1;labelBackgroundColor=none;" vertex="1" parent="1">
          <mxGeometry x="372.5" y="90" width="130" height="20" as="geometry" />
        </mxCell>
        <mxCell id="31aqo5DLNHAE8t7N_z0f-2" value="&lt;div style=&quot;text-align: left&quot;&gt;&lt;span style=&quot;font-size: 18px&quot;&gt;&lt;font&gt;User&lt;/font&gt;&lt;/span&gt;&lt;/div&gt;" style="text;html=1;resizable=0;autosize=1;align=center;verticalAlign=middle;points=[];fillColor=none;strokeColor=none;rounded=0;strokeWidth=3;fontSize=15;fontFamily=Verdana;fontStyle=1;labelBackgroundColor=none;" vertex="1" parent="1">
          <mxGeometry x="140" y="135" width="60" height="20" as="geometry" />
        </mxCell>
      </root>
    </mxGraphModel>
  </diagram>
</mxfile>
